/* XPM */
static char *_73a6c67ddd24939c3c2e6304b6e6a57l6iT0tFDnBpJtOsS[] = {
/* columns rows colors chars-per-pixel */
"50 50 14 1 ",
"  c #188F0E",
". c #1A9D0F",
"X c #1CAB10",
"o c #1EB911",
"O c #20C712",
"+ c #22D513",
"@ c #24E314",
"# c #2BEB1B",
"$ c #38EC29",
"% c #45ED37",
"& c #52EE45",
"* c #5FEF53",
"= c #6CF061",
"- c #79F16F",
/* pixels */
".OoXo..O..  ooXooXo.Xo. Xo++OOo+++.ooXX.X.O .X.XO.",
"#.X+oO+ooXXX X.O XXOOOOo+XOoX.oO.o+ .Xo.XO#XXO.OOX",
"OoO@+O.X.$O.XoXOo++O##oO. +.@+o@.oXoo+. XoO..XOX@.",
"@..@%o@@@X+o oO @@XO.OX O#o@+o.X$O#oo  OX+#oO+XoXo",
". o@@O#@+OOoX#O@OoO oXO@$@#+..O#+%OOXX@O#O.O.XX . ",
".@o#-@@#++@++oX++XoO+Oo#Xo+.OX+o##OoO@++X.Xo+X.. o",
"XX$O.OXX++o.oX+$X.OX#XOO$$+@Oo+$&o@$XXOoO@#O.X @o ",
"%@Oooo+$+O+XOooX.oo+ oO+$@$ooO&o.O+O+O.O@#oX@ oX..",
"  XoO@O@X.X+oX O.%+.+O%o+++@++#O%$@XOo&@X . $XOX  ",
"XO++o+Ooo.O oX.oo@X+o o.oX#X=X+##o#+%&O$ooO$@+XoO ",
"+X+o#OOoX@oOX..X%$OXXOXX+@+$+#.ooOo%%@oXo@++@o OO ",
"  +oOoOO+%#. .@OO+oX.OXXX+oo+O.OooXo$X+@@Xo + .XO ",
".ooO.oX.$o@Oo. .&OX.XXo+#&oX%.%+o#+#oXOO.o..o OX@X",
"XOooOOOo$@OO.o.ooXXo.o#.@X+# @X.$#+o.X+OoXX#OXO+@X",
"++#@OOoOXOooX+oOoo+ OX.oo&O$*OO+X.+@OO. Xo.XX.oOo ",
"+-@X@XX@++oo@O@$+o OXOO$O@##o%ooooOooO  XXX.X$ @X ",
"o+XOoOO@O+X .X+ o@+o@.XX#O@&+O@+X@Ooo.XX..oX@X++  ",
"o.+XoO@+++oX.o+.%.X@@OOO&%oOO+@Xo$XO.O..XO#++oo@  ",
" .#*@-+X+ OOO+XoOo.@.X.o$OX +o+%%OX@+@+XOo#XO@.o. ",
"X$OX + .O+XoX@@.o @@O@@O+XoXX#+O %@#@XoX+$XOXooXX ",
".+ .OoXOO O.XOo.X@XOX@X#oXO+OO$* +O%@@+#oO o@ o.oX",
"#XO.XoOOXXXo@oX@X.@+%@#oX XOo#%#@#@%+#+ X.X%OoXOo.",
"Xo .oXoOo.oX$OOo++&+%o+  .@+%%+@..O% +XOo@O@O@..XO",
"XX@%++OoXOO+oOo+##O&XXX.X+#@oX+oX+OO#Oo@ooX +@X.#.",
"&+&O@oXo+&@X..XO@@@.Oo@XO$@X +OO+@##ooX+o +oX.oo..",
".#@X.oo#oOXo@oo++%oOOo X+.#O#&#@X+#@XX@ oo..$Xo+..",
"XXo.+O@O+#oXXOOOX@Oo# .+#OO%@XO..o+o..oo+.oOOX@. .",
"oooXooOXX. .ooo+%#X&O.+#+o oOX XXo.Xo..oX@Oo$@O ..",
"OOX#o.+.  @.OXoX$ @o@O*o  OO XXXO..oX.XXX+#$++.X X",
"XXoXX..XooooOO$O..@.+#O  .@Xo.Xo....OO+Xo+#@ooXXOO",
"X#@XXo.@.X$OOo.@+o@@+$OXo$XXXXo.@XOOOOX.X.@X+X  Oo",
"%OXoOOOXO@XXo@oOXOOoO@o.@@..oOX@Xo@O .+o+OO@X+XoX.",
"XoX o.o.oX@+o.Xo+@OXOOoX+o..+ ++o+oOo..X+XOooo. OX",
"oOXO.X+#OXOXX.OOo.X.@O@XoOO#+%OOXX OXoo@Oo...X.X. ",
"o+++O+...+oXOo+o@XX@$ XOoXoO#oX.o X@X&X.o.oo.#.+ X",
"+X+OOOo$OOoO+XX#.+OOo.O..OO.OX@oOoOo+XX.OoX+oOo.XX",
"Oo@.oX++O@O+..oXXo+o.oX .@.@oX.OXXoo ooX.#Oo$X@ OX",
"oXX..@O$O++. .OX+.%XoOXo#..+oO+o@XO.@#o@%$$@+oXO. ",
"o+XX+$.Oo oXoO.XO#o X.oXo.o+o+O@+oOo@XO+X@X$.OoXo.",
"oo$#OoO.X..XOXX$%+O#Oo.+.@.Oo@o+oooOo O+  #o%o@.  ",
"o=oXXOoX.ooo@X@X .OO@o@oOo+@+++oo#X.o+o ..Oo.O.o. ",
"X XooO.X++o@oO+.OX#ooX#O@++oO+O#o#ooo+XoO@. #o.X  ",
".XO.XX+@-$+*ooXO+@@XXooO@@X@o.Xo#XoO+ooX. oOOX#   ",
"X.X.+@+#oo$..oo#@$  .XOXo.OooXOX+.XXooXXOoX+@XO...",
". O%XO $@O.O#O@OO.o Xo XOXo.OO.@ Xo  Xo.X@$XO@+.. ",
"o#XXO@%#+O+O++#+.oXOXOoo@XO@.O OX.X.oXXOX+.oO .  X",
"@oO%@@+X.o@..#o oOO+XXoOXXoXoX+..X+OX.. O O OXo .O",
".@XooXX.XO+o+#OoX.O  o+.XoXooo  .o..X  OXX o...XX.",
"OX$. X..+ooo .++OO.Xoo..@  .o.XO.X.. ..oo .oX.oOXo",
". XoXoXOo@ooXoooo.X..@XXX.oo..   X .o.XXo+oO$#X+# "
};
