/* XPM */
static char *_b1f2ead39c241c9b0c97af2f4f408ef3KqVWVFHQGATkejC[] = {
/* columns rows colors chars-per-pixel */
"50 50 18 1 ",
"  c black",
". c #A65F07",
"X c #CB2874",
"o c #188F0E",
"O c #1A9D0F",
"+ c #1CAB10",
"@ c #1EB911",
"# c #20C712",
"$ c #22D513",
"% c #24E314",
"& c #2BEB1B",
"* c #38EC29",
"= c #45ED37",
"- c #52EE45",
"; c #5FEF53",
": c #6CF061",
"> c #79F16F",
", c #91CB0A",
/* pixels */
"O#@+@OO#OOoo@@+@@+@O+@Oo+@$$##@$$$O@@++O+O#oO+O+#O",
"&O+$@#$@@+++o+O#o++###      +O@#O@$oO+@O+#&++#O##+",
"#@#%$#O+O*#O+@+    #  ,,  ,,  @    @@$Oo+@#OO+#+%O",
"%OO%=@%%%+$@o@  ,,  ,,,,,,,,,,  ,,  @oo#+$&@#$+@+@",
"Oo@%%#&%$##    ,,,,,X,,,,,,,,,,,,,,    #&#O#O++oOo",
"O%@&>%%&$$ ,,,,,,,,,,,,,,,,,,X,,,,,,,,, +O+@$+OOo@",
"++*#O#++$ ,,,,,,,,,,,,,,,,,,,,,,,,,,,,,, %&#O+o%@o",
"=%#@@@$*  ,,,,,,,,,,,,,,,,,,,,,,,,,,,,,,  @+%o@+OO",
"oo+@#%#% ,,,,,,,,,,,,,,,,,,,,,,,,X,X,,,,, Oo*+#+oo",
"+#$$@$#@ ,,,,,,,X,,,,,,,,X,,,,,,,,,,,,,,, #*%$+@#o",
"$+$@&##@ ,,,,,,,,,,,,,,,,,,,,,,,,,,,,,,,, $$%@o##o",
"oo$@#@## ,,X,,,,,,,,,,,,,,,,,,,,,,,,,,,,, @o$oO+#o",
"O@@#O@+  ,,,,,,,,,,,,,,,,,,,,,,,,,,,,,,,,  O@o#+%+",
"+#@@##  ,,,,,,,,,,,,,,,,,,,,,,,,,,,,,X,,,,  #+#$%+",
"$$&%## ,,,,,,,,,,,X,,,,,,,,,,X,,,,,,,,,,,,, +O@#@o",
"$>%+%+ ,,,,,,,,,,,,,,,,,,,,,,,,,,,,,,,,,,,, +*o%+o",
"@$+#@# ,,,,,X,,,,,,,,,,,,,,,,,,,,,,,,,,,,,, %+$$oo",
"@O$+@# ,,,,,,,,,,,,,,,,,,,,,,,,,,,,X,,,,,,, $@@%oo",
"oO&;%>  ,,,,,,,,,,,,,,,,X,,,,,,,,,,,,,,,X,  #%O@Oo",
"+*#+o$o  ,,,,,,,,,,,,,,,,,,,,,,,,,,,,,,,,  #+@@++o",
"O$oO#@+ ,,,,,,,,X,,,,,,,,,,,,,,,,,,,,,,,,, @%o@O@+",
"&+#O+@# ,,,X,,,,,,,,,,,,,,,,,,,,,,,,,,,,,, =#@+#@O",
"+@oO@+@ ,,,,,,,,,,,,,,,,,,,,,X,,,,,,,,,,,, %#%OO+#",
"++%=$$#@ ,,,,,,,,,,,,,,,,,,,,,,,,,,,X,,,, +o$%+O&O",
"-$-#%@+@$ ,,,,,,,,,,,X,,,,,,,,,,,,,,,,,, o$@+O@@OO",
"O&%+O@@&@#   ,,,,,,,,,,,,X,,,,,,,,,,,   @@OO*+@$OO",
"++@O$#%#$&@+  ,,,,,,,,,,,,,,,,,,,,,,  @@$O@##+%OoO",
"@@@+@@#++OoO@  ,,,,,,,,,,,,,,,,,,,,  OO@+%#@*%#oOO",
"##+&@O$Ooo%O#+  ,,,   ,,,,,,   ,,,  +O+++$&*$$O+o+",
"++@++OO+@@@@##*    O$  ,,,,  O+    O##$+@$&%@@++##",
"+&%++@O%O+*##@O%$@%%$*  ,,  ++@O%+####+O+O%+$+oo#@",
"=#+@###+#%++@%@#+##@#% .  . @#+%+@%#oO$@$##%+$+@+O",
"+@+o@O@O@+%$@O+@$%#+## .... $o$$@$@#@OO+$+#@@@Oo#+",
"@#+#O+$&#+#++O##@O+O%# .... $=##++o#+@@%#@OOO+O+Oo",
"@$$$#$OOO$@+#@$@%++%*o .... &@+O@o+%+-+O@O@@O&O$o+",
"$+$###@*##@#$++&O$##@O .... #+%@#@#@$++O#@+$@#@O++",
"#@%O@+$$#%#$OO@++@$@O@ .... @+O#++@@o@@+O&#@*+%o#+",
"@++OO%#*#$$OoO#+$O=+@# .... @#$@%+#O%&@%=**%$@+#Oo",
"@$++$*O#@o@+@#O+#&@o+O .... @$#%$@#@%+#$+%+*O#@+@O",
"@@*&#@#O+OO+#++*=$#&#@ .... @%@$@@@#@o#$oo&@=@%Ooo",
"@:@++#@+O@@@%+%+oO##%@ .... $$$@@&+O@$@oOO#@O#O@Oo",
"+o+@@#O+$$@%@#$O#+&@@+ .... #$#&@&@@@$+@#%Oo&@O+oo",
"O+#O++$%>*$;@@+#$%%++@ .... @O+@&+@#$@@+Oo@##+&ooo",
"+O+O$%$&@@*OO@@&%*ooO+ .... @+#+$O++@@++#@+$%+#OOO",
"Oo#=+#o*%#O#&#%##O@o+@ .... ##O%o+@oo+@O+%*+#%$OOo",
"@&++#%=&$#$#$$&$O@+#+# .... O#o#+O+O@++#+$O@#oOoo+",
"%@#=%%$+O@%OO&@o@##$+  ....  +$OO+$#+OOo#o#o#+@oO#",
"O%+@@++O+#$@$&#@+O#o  ......  ooO@OO+oo#++o@OOO++O",
"#+*Oo+OO$@@@oO$$##O+          +#O+OOoOO@@oO@+O@#+@",
"Oo+@+@+#@%@@+@@@@O+OO%+++O@@OOooo+oO@O++@$@#*&+$&o"
};
