/* XPM */
static char *f34003e5cc364078b463afcb37d0ced9kIG4Y8NkrrDKcAMu[] = {
/* columns rows colors chars-per-pixel */
"50 50 45 1 ",
"  c black",
". c gray3",
"X c #101010",
"o c #188F0E",
"O c #1A9D0F",
"+ c #1CAB10",
"@ c #1EB911",
"# c #20C712",
"$ c #22D513",
"% c #24E314",
"& c #2BEB1B",
"* c #38EC29",
"= c #45ED37",
"- c #52EE45",
"; c #5FEF53",
": c #6CF061",
"> c #79F16F",
", c #4E53AD",
"< c #575CB3",
"1 c #6266B8",
"2 c #6D70BD",
"3 c #787AC2",
"4 c #B75281",
"5 c #BB5D89",
"6 c #C06891",
"7 c #C47399",
"8 c #C97EA1",
"9 c #9A42C0",
"0 c #CE89A9",
"q c #D294B1",
"w c #D79FB9",
"e c #8384C7",
"r c #8E8ECC",
"t c #9999D1",
"y c #A4A4D6",
"u c #AFAFDB",
"i c #BABAE0",
"p c #DBAAC1",
"a c #E0B5C9",
"s c #E5C0D1",
"d c #E9CBD9",
"f c #C5C5E5",
"g c #D0D0EA",
"h c #F2E1E9",
"j c #F7ECF1",
/* pixels */
"O#@+@OO#OOoo@@+@@+@O+@Oo+@$$##@$$$O@@++O+O#oO+O+#O",
"&O+$@#$@@+++o+O#o++####@$+#@+O@#O@$oO+@O+#&++#O##+",
"#@#%$#O+O*#O+@+#@$$#&&@#Oo$O%$@%O@+@@$Oo+@#OO+#+%O",
"%OO%=@%%%+$@o@#o%%+#O#+o#&@%$@O+*#&@@oo#+$&@#$+@+@",
"Oo@%%#&%$##@+&#%#@#o@+#%*%&$OO#&$=##++%#&#O#O++oOo",
"O%@&>%%&$$%$$@+$$+@#$#@&+@$O#+$@&&#@#%$$+O+@$+OOo@",
"++*#O#++$$@O@+$*+O#+&+##**$%#@$*-@%*++#@#%&#O+o%@o",
"=%#@@@$*$#$+#@@+O@@$o@#$*%*@@#-@O#$#$#O#%&@+%o@+OO",
"oo+@#%#%+O+$@+o#O=$O$#=@  $%$$&#=*%+#@-%+oOo*+#+oo",
"+#$$@$#@@O#o@+O@@%+$@o@ 46 +:+$&&@&$=-#*@@#*%$+@#o",
"$+$@&##@+%@#+OO+=*#++# 4p74 $&O@@#@==%@+@%$$%@o##o",
"oo$@#@##$=&OoO%##      7pq5      @+@*+$%%+@o$oO+#o",
"O@@#O@+O*@%#@Oo   9999 85a4 9999   &@+##O@OO@o#+%+",
"+#@@###@*%##O@  999999 6464 999999  O+$#@++&#+#$%+",
"$$&%##@#+#@@+$ 9999999 4w74 9999999 ##Oo+@O++O@#@o",
"$>%+%++%$$@@%# 9999999 47h5 9999999 @#oo+++O+*o%+o",
"@$+#@##%#$+oO+ 9999999 8508 9999999 @O++OO@+%+$$oo",
"@O$+@#%$$      9999999 4466 9999999      #&$$@@%oo",
"oO&;%>$+  6744  999999 0766 999999  4465  &+#%O@Oo",
"+*#+o$o 4750878 999999 4w40 999999 5407744 #+@@++o",
"O$oO#@  4w464454 99999 5q60 99999 45076aw7  %o@O@+",
"&+#O+@ 44qqp8446  9999 87w6 9999  6505674w4 #@+#@O",
"+@oO@+ q478757004 9999 7008 9999 4766454484 #%OO+#",
"++%=$$  7547474p7 9999 56w5 9999 807577554  $%+O&O",
"-$-#%@+ 640q68658  999 6daw 999  78q765wq7 @+O@@OO",
"O&%+O@@ w540w668p4 999 57p7 999 46885568a7 O*+@$OO",
"++@O$   6707655644 999 6884 999 80866776w7   +%OoO",
"@@@+  9  447886574  99 5wq4 99  8wq655674  9  #oOO",
"##+ 9999  448487544 99  q4  99 4q0656555  9999 +o+",
"++  99999  4s76876a 999 wq 999 56w70646. 99999  ##",
"+& 9999999  4w577044 99 60 99 4wp66744X 9999999 #@",
"=# 99999999  705s576 99 04 99 4qj5544  99999999 +O",
"+@ 9999999999  46478 99 75 99 q6q76  9999999999 #+",
"@# 99999999999  74q4  9 4w 9  8044  99999999999 Oo",
"@$  99999999999  4p54 9 64 9 4064  99999999999  o+",
"$+$  99999999999  4qa 9 54 9 564  99999999999  O++",
"#@%O    999999999  7q   04   w4  999999999    %o#+",
"@++OO%#  999999999  84 74p4 6d  999999999  %$@+#Oo",
"@$++$*O#    9999999 58 78p7 p6 9999999    +*O#@+@O",
"@@*&#@#O+ ,     999  4 40q4 7  999     , o&@=@%Ooo",
"@:@++#@+O r,23,   999        999   ,<1,1 O#@O#O@Oo",
"+o+@@#O+$ ,rer3,,   999    999   ,<it,t3 %Oo&@O+oo",
"O+#O++$%> <fy3,1i,1            ,<getti3, o@##+&ooo",
"+O+O$%$&@ .2<e<ye<11,        ,r3u3,,e,,  @+$%+#OOO",
"Oo#=+#o*%#                              +%*+#%$OOo",
"@&++#%=&$#$#$$&$O@+#+#@@%+#%O#o#+O+O@++#+$O@#oOoo+",
"%@#=%%$+O@%OO&@o@##$++@#++@+@+$OO+$#+OOo#o#o#+@oO#",
"O%+@@++O+#$@$&#@+O#oo@$O+@+@@@ooO@OO+oo#++o@OOO++O",
"#+*Oo+OO$@@@oO$$##O+@@OO%ooO@O+#O+OOoOO@@oO@+O@#+@",
"Oo+@+@+#@%@@+@@@@O+OO%+++O@@OOooo+oO@O++@$@#*&+$&o"
};
