/* XPM */
static char *_d9f91bec72b4627a7eeda4aa79b62f78hdTqjC0bW7zH2xg[] = {
/* columns rows colors chars-per-pixel */
"50 50 30 1 ",
"  c black",
". c gray3",
"X c #101010",
"o c #181818",
"O c #4C3C3C",
"+ c #188F0E",
"@ c #1A9D0F",
"# c #1CAB10",
"$ c #1EB911",
"% c #20C712",
"& c #22D513",
"* c #24E314",
"= c #2BEB1B",
"- c #38EC29",
"; c #45ED37",
": c #52EE45",
"> c #5FEF53",
", c #6CF061",
"< c #79F16F",
"1 c #E2CD07",
"2 c #F1DA07",
"3 c #F8E10F",
"4 c #F8E31E",
"5 c #F8E52D",
"6 c #F8E73C",
"7 c #F9E94B",
"8 c #F9EB5A",
"9 c #FAED69",
"0 c #FAEF78",
"q c #FBF187",
/* pixels */
"@%$#$@@%@@++$$#$$#$@#$@+#$&&%%$&&&@$$##@#@%+@#@#%@",
"=@#&$%&$$###+#@%+##%%%%$&#%$#@$%@$&+@#$@#%=##%@%%#",
"%$%*&%@#@-%@#$#%$&&%==$%@+&@*&$*@$#$$&@+#$%@@#%#*@",
"*@@*;$***#&$+$%+**#%@%#+%=$*&$@#-%=$$++%#&=$%&#$#$",
"@+$**%=*&%%$#=%*%$%+$#%*-*=&@@%=&;%%##*%=%@%@##+@+",
"@*$=<**=&&*&&$#&&#$%&%$=#$&@%#&$==%$%*&&#@#$&#@@+$",
"##-%@%##&&$@$#&-#@%#=#%%--&*%$&-:$*-##%$%*=%@#+*$+",
";*%$$$&-&%&#%$$#@$$&+$%&-*-$$%:$@%&%&%@%*=$#*+$#@@",
"++#$%*%*#@#&$#+%@;&@&%      &&=%;-*#%$:*#+@+-#%#++",
"#%&&$&%$$@%+$#@$$*#    1122    ==$=&;:%-$$%-*&#$%+",
"&#&$=%%$#*$%#@@#;   2322221111   %$;;*$#$*&&*$+%%+",
"++&$%$%%&;=@+@*%  11217313171311  #$-#&**#$+&+@#%+",
"@$$%@$#@-$*%$@+  1133332225234341  =$#%%@$@@$+%#*#",
"#%$$%%%$-*%%@$@ 113124417225114311 $@#&%$##=%#%&*#",
"&&=*%%$%#%$$#&  223338232114113331  %%@+#$@##@$%$+",
"&<*#*##*&&$$*  12724342411421243231  %++###@#-+*#+",
"$&#%$%%*%&#+@ 1223132253113214221571 @##@@$#*#&&++",
"$@&#$%*&&&$#  1353325422151222223236  @@#%=&&$$*++",
"+@=>*<&#&+%% 141441112334341414125161 &#%$=#%*@$@+",
"#-%#+&+@%&#  134231114242512522122241  #&-#%#$$##+",
"@&+@%$#%%+  13425111534211115631323235  $%+$*+$@$#",
"=#%@#$%%## 1240232133321223144212222231 #@#;%$#%$@",
"#$+@$#$%$  1354216292415112235413241531  *%*%*@@#%",
"##*;&&%$# 134332366222314331154262252211 $#+&*#@=@",
":&:%*$#$  132324343111513411333113141223  &$#@$$@@",
"@=*#@$$= 11561263841123333325451121312161 @@-#$&@@",
"##$@&%*% 14151334422245112112442234734433 $%%#*@+@",
"$$$#$$%  53322226211212232111241122443311  $-*%+@@",
"%%#=$@  1233413322121113132232422121262531  &&@#+#",
"##$##@ 132262123134111      113192133324691 $$##%%",
"#=*##$ 1233481151121   OOOO   2263131626366 &#++%$",
";%#$%  3143461111141 OOOOOOOO 1343985412521  &#$#@",
"#$#+$ 1233328411342 OOOOOOOOOOX3538423318211 $@+%#",
"$%#%@ 1631346232102 OOOOOOOOOO.1726225125421X#@#@+",
"$&&& 15134324121371 OOOOOOOOOOo22223246435532 @&+#",
"&#&% 1543455112173 OOOOOOOOOOOO 1515135316223 $@##",
"%$*@ 2761214241291 OOOOOOOOOOOO 1517154346421 *+%#",
"$## 13412333324751 OOOOOOOOOOOO 16151463241311 %@+",
"$&# 14312542145651 OOOOOOOOOOOO 17175621341241 #$@",
"$$- 14625241126631 OOOOOOOOOOOO 14172443141861 @++",
"$,$ 35244121223115 OOOOOOOOOOOO 152623q1142q71 $@+",
"#+# 34622433136338 OOOOOOOOOOOO 17431351134451 #++",
"@# 124313211223361 OOOOOOOOOOOO 157244431524751 ++",
"#@ 242431213223241 OOOOOOOOOOOO 144144332252732 @@",
"@+.                                             @+",
"$=##%*;=&%&%&&=&@$#%#%$$*#%*@%+%#@#@$##%#&@$%+@++#",
"*$%;**&#@$*@@=$+$%%&##$%##$#$#&@@#&%#@@+%+%+%#$+@%",
"@*#$$##@#%&$&=%$#@%++$&@#$#$$$++@$@@#++%##+$@@@##@",
"%#-@+#@@&$$$+@&&%%@#$$@@*++@$@#%@#@@+@@$$+@$#@$%#$",
"@+#$#$#%$*$$#$$$$@#@@*###@$$@@+++#+@$@##$&$%-=#&=+"
};
