/* XPM */
static char *_7ed1966ef944608d603a8cc84ef795a3DsuUGZqmpfrVShl[] = {
/* columns rows colors chars-per-pixel */
"50 50 22 1 ",
"  c black",
". c #206126",
"X c #1D6C7B",
"o c #B31A1A",
"O c #825012",
"+ c #BB6F13",
"@ c #188F0E",
"# c #1A9D0F",
"$ c #1CAB10",
"% c #1EB911",
"& c #20C712",
"* c #22D513",
"= c #24E314",
"- c #2BEB1B",
"; c #38EC29",
": c #45ED37",
"> c #52EE45",
", c #5FEF53",
"< c #6CF061",
"1 c #79F16F",
"2 c #A49D1C",
"3 c #C49C9C",
/* pixels */
"#&%$%##&##@@%%$%%$%#$%#@$%**&&%***#%%$$#$#&@#$#$&#",
"-#$*%&*%%$$$@$#&@$$&&&&%*$&%$ %&#%*@#$%#$&-$$&#&&$",
"&%&=*&#$#;&#$%$&%**&-  &#@*#   =#%$%%*#@$%&##$&$=#",
"=##=:%===$*%@%&@==$&    &-%  X $;&-%%@@&$*-%&*$%$%",
"#@%==&-=*&&%$-&=&%&@ 22 ;=- XX -*:&&$$=&-&#&#$$@#@",
"#=%-1==-**=**%$**$%  22  %  X  %--&%&=**$#$%*$##@%",
"$$;&#&$$**%#%$*;$#  2222   XX *;>%=;$$&%&=-&#$@=%@",
":=&%%%*;*&*$&%%$#% 222222  XX >%#&*&*&#&=-%$=@%$##",
"@@$%&=&=$#$*%$@&#  222222  X *-&:;=$&%>=$@#@;$&$@@",
"$&**%*&%%#&@%$#%% 22222222 X $*--%-*:>&;%%&;=*$%&@",
"*$*%-&&%$=%&$##$  22222222   -#%%&%::=%$%=**=%@&&@",
"@@*%&%&&*:-#@#=& 2222222222 *&#&%%$%;$*==$%@*@#$&@",
"#%%&#%$#;%=&%#@# 2222222222 :#:*%-*-%$&&#%##%@&$=$",
"$&%%&&&%;=&&#%#  2222222222  =$#;-*%#$*&%$$-&$&*=$",
"**-=&&%&$&%%$*                &*$#*=&&#@$% $$#%&%@",
"*1=$=$$=**%%=&=; 3333333333 %:%%%%&%%&@@  $#$;@=$@",
"%*$&%&&=&*$@#$*@ 33 3333 33 *&=*$=&%%#    %$=$**@@",
"%#*$%&=***%$#%*# 3333333333 &*=$%;$&    +  **%%=@@",
"@#-,=1*$*@&&&*$%  333  333  *%*::&     +++ $&=#%#@",
"$;&$@*@#&*$%$==#% 33333333 $$-*    -=  ++++ $%%$$@",
"#*@#&%$&&@&#$&%#$  3    3  *&&  @*&:= +++++  @%#%$",
"-$&#$%&&$$$%=%$=$#  3333  $&   -=-=:* ++++++ %$&%#",
"$%@#%$%&%#%$;&&%**>          :*=##&:@ ++++++ =##$&",
"$$=:**&%$&&*%&%*-   oooo     $*%$*&&  +++++++ $#-#",
">*>&=%$%*>=$##$   .  oo  ...   &*=--  +++++++ %%##",
"#-=$#%%-%&$%=   ....    ......  $*-=  +++++++ %*##",
"$$%#*&=&*-%$  .......  ........  %*%#  +++++  =#@#",
"%%%$%%&$$#   ...................  #$%#       =&@##",
"&&$-%#*#@  ...  ............  ... #%$#$$$*-;**#$@$",
"$$%$$##$% ...   ............   ..  #&&*$%*-=%%$$&&",
"$-=$$%#=# ... # ............ $ ... &&&$#$#=$*$@@&%",
":&$%&&&$& ... % ............ & ... &@#*%*&&=$*$%$#",
"$%$@%#%#%  .. $ ............ @ ..  &%##$*$&%%%#@&$",
"%&$&#$*-&$ ..   ............   .. @&$%%=&%###$#$#@",
"%***&*###*  .. .............. ..  $=$>$#%#%%#-#*@$",
"*$*&&&%;&&%  . .............. .  %&%*$$#&%$*%&%#$$",
"&%=#%$**&=&*   ..............   $$%%@%%$#-&%;$=@&$",
"%$$##=&;&**#@  .............. *%=$&#=-%=:;;=*%$&#@",
"%*$$*;#&%@%$%  ..............  =*%&%=$&*$=$;#&%$%#",
"%%;-&%&#$##$& ................ *%%%&%@&*@@-%:%=#@@",
"%<%$$&%$#%%%= ................ %%-$#%*%@##&%#&#%#@",
"$@$%%&#$**%=% ................ -%-%%%*$%&=#@-%#$@@",
"#$&#$$*=1;*,% ................ %-$%&*%%$#@%&&$-@@@",
"$#$#*=*-%%;##                  $*#$$%%$$&%$*=$&###",
"#@&:$&@;=&#&-&=& OO $%@$ OO &&#=@$%@@$%#$=;$&=*##@",
"%-$$&=:-*&*&**-* OO $&%% OO #&@&$#$#%$$&$*#%&@#@@$",
"=%&:==*$#%=##-%@    $$%&    %$*##$*&$##@&@&@&$%@#&",
"#=$%%$$#$&*%*-&% OO @%*# OO %%@@#%##$@@&$$@%###$$#",
"&$;#@$##*%%%@#**    %%##    %#$&#$##@##%%@#%$#%&$%",
"#@$%$%$&%=%%$%%%%#$##=$$$#%%##@@@$@#%#$$%*%&;-$*-@"
};
