/* XPM */
static char *e0d6924ffa9948fed17a21b182ca4a73y95fc9i0ACys3u39[] = {
/* columns rows colors chars-per-pixel */
"50 50 21 1 ",
"  c black",
". c #206126",
"X c #1D6C7B",
"o c #825012",
"O c #BB6F13",
"+ c #188F0E",
"@ c #1A9D0F",
"# c #1CAB10",
"$ c #1EB911",
"% c #20C712",
"& c #22D513",
"* c #24E314",
"= c #2BEB1B",
"- c #38EC29",
"; c #45ED37",
": c #52EE45",
"> c #5FEF53",
", c #6CF061",
"< c #79F16F",
"1 c #A49D1C",
"2 c #C49C9C",
/* pixels */
"@%$#$@@%@@++$$#$$#$@#$@+#$&&%%$&&&@$$##@#@%+@#@#%@",
"=@#&$%&$$###+#@%+##%%%%$&#%$ @$%@$&+@#$@#%=##%@%%#",
"%$%*&%@#@-%@#$#%$&&%  $%@+&   $*@$#$$&@+#$%@@#%#*@",
"*@@*;$***#&$+$%+**#    +%=  X @#-%=$$++%#&=$%&#$#$",
"@+$**%=*&%%$#=%*%$% 11 *-* XX %=&;%%##*%=%@%@##+@+",
"@*$=<**=&&*&&$#&&#  11  #  X  &$==%$%*&&#@#$&#@@+$",
"##-%@%##&&$@$#&-#  1111   XX $&-:$*-##%$%*=%@#+*$+",
";*%$$$&-&%&#%$$#@ 111111  XX %:$@%&%&%@%*=$#*+$#@@",
"++#$%*%*#@#&$#+%  111111  X &&=%;-*#%$:*#+@+-#%#++",
"#%&&$&%$$@%+$#@$ 11111111 X ,#&==$=&;:%-$$%-*&#$%+",
"&#&$=%%$#*$%#@@  11111111   &=@$$%$;;*$#$*&&*$+%%+",
"++&$%$%%&;=@+@* 1111111111 $&%@%$$#$-#&**#$+&+@#%+",
"@$$%@$#@-$*%$@+ 1111111111 #;@;&$=&=$#%%@$@@$+%#*#",
"#%$$%%%$-*%%@$  1111111111  +*#@-=&$@#&%$##=%#%&*#",
"&&=*%%$%#%$$#                %%&#@&*%%@+# @##@$%$+",
"&<*#*##*&&$$*%* 2222  oooo =$;$$$$%$$%+  ##@#-+*#+",
"$&#%$%%*%&#+@#& 22222 oooo :&%*&#*%$$    @$#*#&&++",
"$@&#$%*&&&$#@$& 22 22  ooo %%&*#$-#    O  =&&$$*++",
"+@=>*<&#&+%%%& 2222222  o  +&$&;;     OOO =#%*@$@+",
"#-%#+&+@%&#$# 222222222 o $##=    *=  OOOO %#$$##+",
"@&+@%$#%%+%@#    222222   %&%  >+&%; OOOOO  *+$@$#",
"=#%@#$%%###$*$#*#  2222  +#   ;=*=*; OOOOOO %$#%$@",
"#$+@$#$%$@$#-%%$&&          ;;&*@@%; OOOOOO %*@@#%",
"##*;&&%$#%%&$%$&=  ....   =*$#&$#&%  OOOOOOO *#@=@",
":&:%*$#$&:*#@@#% ........ *#+&%%&*=  OOOOOOO @$$@@",
"@=*#@$$=$%#$*$$& ........ =%=:=*#&=  OOOOOOO #$&@@",
"##$@&%*%&=$##%%  .... ...  ;*#%@@$&$  OOOOO  #*@+@",
"$$$#$$%##@+@$$$ .... . ... $%#+##$@#$       -*%+@@",
"%%#=$@&@++*@%#  .... . ...  +###%@@$#@###&=-&&@#+#",
"##$##@@#$$$$%% ..... . .... $@#$@@@@%%&#$&=*$$##%%",
"#=*##$@*@#-%%$ ..... . .... ##$@*#%%%%#@#@*#&#++%$",
";%#$%%%#%*##$* ..... . .... $%#*#$*%+@&$&%%*#&#$#@",
"#$#+$@$@$#*&$@ ..... . .... &+&&$&$%$@@#&#%$$$@+%#",
"$%#%@#&=%#%##  ..... . ....  ;%%##+%#$$*%$@@@#@#@+",
"$&&&%&@@@&$#% ...... . ..... $#@$+#*#:#@$@$$@=@&+#",
"&#&%%%$-%%$%& ...... . ..... #*$%$%$&##@%$#&$%$@##",
"%$*@$#&&%*%&@ ...... . ..... #@%##$$+$$#@=%$-#*+%#",
"$##@@*%-%&&@+ ....  .. ..... %&$*#%@*=$*;--*&$#%@+",
"$&##&-@%$+$#  ... .... .....  %*&$%$*#%&#*#-@%$#$@",
"$$-=%$%@#@@# .....    ....... $&$$$%$+%&++=$;$*@++",
"$,$##%$#@$$$ ................ &$$=#@$&$+@@%$@%@$@+",
"#+#$$%@#&&$* ................ %=$=$$$&#$%*@+=$@#++",
"@#%@##&*<-&> ................ #$=#$%&$$#@+$%%#=+++",
"#@#@&*&=$$-@                  %#&@##$$##%$#&*#%@@@",
"@+%;#%+-*%@%=%* oo +#$+ oo @%%@*+#$++#$@#*-#%*&@@+",
"$=##%*;=&%&%    oo %    oo *@%+%#@#@$##%#&@$%+@++#",
"*$%;**&#@$*@ ooooo & ooooo #$#&@@#&%#@@+%+%+%#$+@%",
"@*#$$##@#%&$ ooooo + ooooo $$$++@$@@#++%##+$@@@##@",
"%#-@+#@@&$$$       #       @$@#%@#@@+@@$$+@$#@$%#$",
"@+#$#$#%$*$$#$$$$@#@@*###@$$@@+++#+@$@##$&$%-=#&=+"
};
