/* XPM */
static char *_86c709aa9c24ed49a62bdba7bd1808506QXx4IWEvB7sneu[] = {
/* columns rows colors chars-per-pixel */
"50 50 21 1 ",
"  c black",
". c #206126",
"X c #1D6C7B",
"o c #825012",
"O c #BB6F13",
"+ c #188F0E",
"@ c #1A9D0F",
"# c #1CAB10",
"$ c #1EB911",
"% c #20C712",
"& c #22D513",
"* c #24E314",
"= c #2BEB1B",
"- c #38EC29",
"; c #45ED37",
": c #52EE45",
"> c #5FEF53",
", c #6CF061",
"< c #79F16F",
"1 c #A49D1C",
"2 c #C49C9C",
/* pixels */
"@%$#$@@%@@++$$#$$#$@#$@+#$&&%%$&&&@$$##@#@%+@#@#%@",
"=@#&$%&$$###+#@%+##%% %$&#%$#@$%@$&+@#$@#%=##%@%%#",
"%$%*&%@#@-%@#$#%$&&%   %@+&@  $*@$#$$&@+#$%@@#%#*@",
"*@@*;$***#&$+$%+**#% X  %=$    #-%=$$++%#&=$%&#$#$",
"@+$**%=*&%%$#=%*%$%+ XX -*= 11 =&;%%##*%=%@%@##+@+",
"@*$=<**=&&*&&$#&&#$%  X  $  11  ==%$%*&&#@#$&#@@+$",
"##-%@%##&&$@$#&-#@%#= XX   1111  $*-##%$%*=%@#+*$+",
";*%$$$&-&%&#%$$#@$$&+ XX  111111 %&%&%@%*=$#*+$#@@",
"++#$%*%*#@#&$#+%@;&@&% X  111111  *#%$:*#+@+-#%#++",
"#%&&$&%$$@%+$#@$$*#&$+ X 11111111 =&;:%-$$%-*&#$%+",
"&#&$=%%$#*$%#@@#;-%##%   11111111  ;;*$#$*&&*$+%%+",
"++&$%$%%&;=@+@*%%&$#@%# 1111111111 $-#&**#$+&+@#%+",
"@$$%@$#@-$*%$@+@:%#@##$ 1111111111 =$#%%@$@@$+%#*#",
"#%$$%%%$-*%%@$@$$##$@$  1111111111  @#&%$##=%#%&*#",
"&&=*%%$% %$$#&$%$$&+%                %@+#$@##@$%$+",
"&<*#*##*&  $*%*-&$+%#%% oooo  2222 $$%++###@#-+*#+",
"$&#%$%%*%    #&+$*&$*@# oooo 22222 $$@##@@$#*#&&++",
"$@&#$%*&  O    @;@#**%% ooo  22 22 %@%@@#%=&&$$*++",
"+@=>*<&# OOO     $@*@#@  o  2222222 &*&#%$=#%*@$@+",
"#-%#+&+ OOOO  *@    %**% o 222222222 #$#&-#%#$$##+",
"@&+@%$  OOOOO $@#*#  *#=   222222    *&=$%+$*+$@$#",
"=#%@#$ OOOOOO #*#@*&   $#  2222  =*;&=&+#@#;%$#%$@",
"#$+@$# OOOOOO %$&&:&;$          @@%;+&#%$*%*%*@@#%",
"##*;& OOOOOOO  &==%:###@   ....  &%%=%$*$$#+&*#@=@",
":&:%* OOOOOOO  %***@%$*# ........ ==$$#&$+&$#@$$@@",
"@=*#@ OOOOOOO  &&;$%%$+# ........ =*##*+$$@@-#$&@@",
"##$@&  OOOOO  %%#*%$=+@  ... ....  $@@$$&@$%%#*@+@",
"$$$#$$       $$&;=#:%@& ... . .... #$@@$#*%$-*%+@@",
"%%#=$@&@++*@%#$#-+*$*%  ... . ....  #@###&=-&&@#+#",
"##$##@@#$$$$%%-%@@*@&= .... . ..... %%&#$&=*$$##%%",
"#=*##$@*@#-%%$@*&$**&- .... . ..... %%#@#@*#&#++%$",
";%#$%%%#%*##$*$%#%%$%* .... . ..... +@&$&%%*#&#$#@",
"#$#+$@$@$#*&$@#$&*%#%% .... . ..... $@@#&#%$$$@+%#",
"$%#%@#&=%#%##@%%$@#@*  .... . .....  $$*%$@@@#@#@+",
"$&&&%&@@@&$#%$&$*##*- ..... . ...... :#@$@$$@=@&+#",
"&#&%%%$-%%$%&##=@&%%$ ..... . ...... ##@%$#&$%$@##",
"%$*@$#&&%*%&@@$##$&$@ ..... . ...... $$#@=%$-#*+%#",
"$##@@*%-%&&@+@%#&@;#$ ..... ..  .... =$*;--*&$#%@+",
"$&##&-@%$+$#$%@#%=$+  ..... .... ...  %&#*#-@%$#$@",
"$$-=%$%@#@@#%##-;&%= .......    ..... %&++=$;$*@++",
"$,$##%$#@$$$*#*#+@%% ................ $+@@%$@%@$@+",
"#+#$$%@#&&$*$%&@%#=$ ................ #$%*@+=$@#++",
"@#%@##&*<-&>$$#%&**# ................ $#@+$%%#=+++",
"#@#@&*&=$$-@@$$=*-++                  ##%$#&*#%@@@",
"@+%;#%+-*%@%=%*%%@$+#$+ oo @%%@ oo ++#$@#*-#%*&@@+",
"$=##%*;=&%&%&&=&@$#%#%$ oo    + oo    #%#&@$%+@++#",
"*$%;**&#@$*@@=$+$%%&##$ ooooo & ooooo @+%+%+%#$+@%",
"@*#$$##@#%&$&=%$#@%++$& ooooo + ooooo +%##+$@@@##@",
"%#-@+#@@&$$$+@&&%%@#$$@       #       @$$+@$#@$%#$",
"@+#$#$#%$*$$#$$$$@#@@*###@$$@@+++#+@$@##$&$%-=#&=+"
};
