/* XPM */
static char *c620f0372445476e91eaa48110d0d6a77MDKXg5kd14CHWh4[] = {
/* columns rows colors chars-per-pixel */
"50 50 22 1 ",
"  c black",
". c #050953",
"X c gray38",
"o c #EF092C",
"O c #188F0E",
"+ c #1A9D0F",
"@ c #1CAB10",
"# c #1EB911",
"$ c #20C712",
"% c #22D513",
"& c #24E314",
"* c #2BEB1B",
"= c #38EC29",
"- c #45ED37",
"; c #52EE45",
": c #5FEF53",
"> c #6CF061",
", c #79F16F",
"< c #FFE700",
"1 c #252FE2",
"2 c #C49C9C",
"3 c #EDECE4",
/* pixels */
"+$#@#++$++OO##@##@#+@#+O@#%%$$#%%%+##@@+@+$O+@+@$+",
"*+@%#$%##@@@O@+$O@@$$$$#%@$#@+#$+#%O+@#+@$*@@$+$$@",
"$#$&%$+@+=$+@#@$#%%$**#$+O%+&%#&+#@##%+O@#$++@$@&+",
"&++&-#&&&@    $O&&@$+$@O$*#&%#+@=$*##OO$@%*#$%@#@#",
"+O#&&$*&%$ XX $&$#$O#@$&=&*%++$*%-$$@@&$*$+$+@@O+O",
"+&#*,&&*%% XX @%%@#$%$#*@#%+$@%#**$#$&%%@+@#%@++O#",
"@@=$+$@@%% XX % @+$@*@$$==%&$#%=;#&=@@$#$&*$+@O&#O",
"-&$###%=%$ XX  @+##%O#$%=&=##$;#+$%$%$+$&*#@&O#@++",
"OO@#$&$&@+ XX O$+-%+%$-#%%%   *$-=&@$#;&@O+O=@$@OO",
"@$%%#%$##+ XX    &@%#O#+    . %**#*%-;$=##$=&%@#$O",
"%@%#*$$#@& XXXXX =$@@    .... +##$#--&#@#&%%&#O$$O",
"OO%#$#$$%- XXXXX %#@  ......  +$##@#=@%&&@#O%O+@$O",
"+##$+#@+=#       $@+             *%*#@$$+#++#O$@&@",
"@$##$$$#=&$$+ 11 @@#+ 33 2222 @+=*%#+@%$#@@*$@$%&@",
"%%*&$$#$@$##@  11 %O$ 33 22 2 $%@+%&$$    +@@+#$#O",
"%,&@&@@&%%##&$ 11 O$@    2222 ####$## oooo +@=O&@O",
"#%@$#$$&$%@O+@ 11 %#&+ 22222  &%@&$## oooo @&@%%OO",
"#+%@#$&%%%#@+#  1 @&&$  2222      @$+ oooo %%##&OO",
"O+*:&,%@%O$$$%@ 11 &+@+ 222  <<<< @&% oooo @$&+#+O",
"@=$@O%O+$%@#@&&+ 11 $&&         < &*&@    @$@##@@O",
"+%O+$#@$$O$+@$#+ 11 @&@    %$$=   $-&&%  $O#&O#+#@",
"*@$+@#$$@@@#&#@&@ 1 -&  11 $#*-*&*&-%*%  +@-$#@$#+",
"@#O+#@#$#+#@=$$#% 11   111  --%&++$-O%@  &$&$&++@$",
"@@&-%%$#@$$%#$#%*  1  11111 #@%#@%$$*    #@O%&@+*+",
";%;$&#@#%;&@++@$&& 1 111111  %$$%&*   11 O%#@+##++",
"+*&@+##*#$@#&##%%-   1111111 ;*&@   111  #++=@#%++",
"@@#+%$&$%*#@@$$$@&$ 11111111      111   %+#$$@&+O+",
"###@##$@@+O+###%-*@ 111111111 11111  ++#@&$#=&$O++",
"$$@*#+%+OO&+$@#@=O& 111111111 1     @+@@@%*=%%+@O@",
"@@#@@++@####$$=$++  111111111    +++$$%@#%*&##@@$$",
"@*&@@#+&+@=$$#+&%# 1111111111 #+&@$$$$@+@+&@%@OO$#",
"-$@#$$$@$&@@#&#$@$ 1111111111 @&@#&$O+%#%$$&@%@#@+",
"@#@O#+#+#@&%#+@#%& 1111111111 %%#%#$#++@%@$###+O$@",
"#$@$+@%*$@$@@+$$#+ 1111111111 $$@@O$@##&$#+++@+@+O",
"#%%%$%+++%#@$#%#&@ 1111111111 @+#O@&@;@+#+##+*+%O@",
"%@%$$$#=$$#$%@@*+% 1111111111 &#$#$#%@@+$#@%#$#+@@",
"$#&+#@%%$&$%++#@@ 111111111111 $@@##O##@+*$#=@&O$@",
"#@@++&$=$%%+O+$@% 111111111111 #&@$+&*#&-==&%#@$+O",
"#%@@%=+$#O#@#$+@$ 111111111111 &%#$#&@$%@&@=+$#@#+",
"##=*$#$+@++@$@@=- 111111111111 %###$#O$%OO*#-#&+OO",
"#>#@@$#@+###&@&@O 111111111111 ##*@+#%#O++$#+$+#+O",
"@O@##$+@%%#&#$%+$ 111111111111 *#*###%@#$&+O*#+@OO",
"+@$+@@%&,=%:##@$%              #*@#$%##@+O#$$@*OOO",
"@+@+%&%*##=++##*&=O . $@# . #@$@%+@@##@@$#@%&@$+++",
"+O$-@$O=&$+$*$&$$+# . O@$ . $$+&O@#OO@#+@&=@$&%++O",
"#*@@$&-*%$%$%%*%+#@ .   & .   O$@+@+#@@$@%+#$O+OO@",
"&#$-&&%@+#&++*#O#$$ ... @ ... %++@%$@++O$O$O$@#O+$",
"+&@##@@+@$%#%*$#@+$     @     OO+#++@OO$@@O#+++@@+",
"$@=+O@++%###O+%%$$+@##++&OO+#+@$+@++O++##O+#@+#$@#",
"+O@#@#@$#&##@####+@++&@@@+##++OOO@O+#+@@#%#$=*@%*O"
};
